<svg width="69" height="85" viewBox="0 0 69 85" fill="none" xmlns="http://www.w3.org/2000/svg">
<path d="M0.816 85V83.72L3.376 82.824C5.08267 82.312 6.192 81.544 6.704 80.52C7.30133 79.496 7.6 78.1307 7.6 76.424V9.352C7.6 7.64533 7.30133 6.28 6.704 5.256C6.10667 4.23199 4.95467 3.42133 3.248 2.824L0.816 1.8V0.519997H31.92C44.6347 0.519997 53.808 2.86666 59.44 7.56C65.1573 12.168 68.016 18.2693 68.016 25.864C68.016 30.728 66.8213 35.208 64.432 39.304C62.128 43.3147 58.288 46.5147 52.912 48.904C47.536 51.2933 40.2827 52.488 31.152 52.488H26.8V76.04C26.8 79.368 28.464 81.544 31.792 82.568L35.632 83.72V85H0.816ZM26.8 49.928H31.664C35.8453 49.928 39.2587 49.2453 41.904 47.88C44.5493 46.5147 46.512 44.1253 47.792 40.712C49.072 37.2987 49.712 32.5627 49.712 26.504C49.712 20.36 48.9867 15.5813 47.536 12.168C46.1707 8.75466 44.1227 6.408 41.392 5.128C38.6613 3.76266 35.248 3.07999 31.152 3.07999H26.8V49.928Z" fill="#09357B"/>
</svg>
