<?xml version="1.0" standalone="no"?>
<!DOCTYPE svg PUBLIC "-//W3C//DTD SVG 20010904//EN"
 "http://www.w3.org/TR/2001/REC-SVG-20010904/DTD/svg10.dtd">
<svg version="1.0" xmlns="http://www.w3.org/2000/svg"
 width="680.000000pt" height="680.000000pt" viewBox="0 0 680.000000 680.000000"
 preserveAspectRatio="xMidYMid meet">
<metadata>
Created by potrace 1.14, written by Peter Selinger 2001-2017
</metadata>
<g transform="translate(0.000000,680.000000) scale(0.100000,-0.100000)"
fill="#000000" stroke="none">
<path d="M706 6717 c2 -62 1 -61 37 -76 80 -34 123 -53 142 -60 199 -81 273
-142 319 -261 19 -47 22 -58 34 -125 9 -53 9 -5610 -1 -5655 -27 -130 -53
-185 -114 -247 -53 -54 -116 -87 -243 -129 -47 -15 -89 -31 -95 -34 -5 -4 -24
-11 -42 -14 -35 -8 -39 -15 -38 -71 l0 -40 1393 -3 1393 -2 -3 52 c-3 58 12
48 -158 99 -176 52 -209 64 -280 101 -73 39 -144 101 -188 164 -12 17 -19 34
-15 38 3 3 1 6 -5 6 -7 0 -12 8 -12 18 0 10 -4 22 -9 27 -11 11 -20 47 -29
115 -3 25 -6 479 -6 1010 -1 765 2 965 12 966 6 1 15 2 20 4 9 2 304 2 317 0
6 -1 12 -2 15 -1 3 1 86 4 185 6 203 5 354 14 485 30 19 2 62 7 95 10 58 6 93
10 145 20 14 2 45 7 70 11 25 3 50 7 55 8 6 2 28 6 50 11 22 4 49 10 60 12 11
2 31 6 45 9 111 22 321 87 485 151 69 27 249 116 253 126 2 4 8 7 12 7 8 0 97
51 155 90 90 59 135 92 135 101 0 5 5 9 10 9 13 0 58 38 140 120 133 132 204
226 292 386 44 79 138 293 154 349 1 6 14 51 28 100 36 126 62 276 71 420 3
43 8 81 10 83 2 2 -1 17 -5 33 -5 16 -5 29 -2 29 4 0 6 15 5 33 -1 17 -4 70
-7 117 -11 186 -59 436 -96 502 -6 10 -10 23 -10 30 0 22 -82 199 -134 288
-47 80 -140 211 -189 264 -88 96 -150 156 -233 226 -193 164 -486 317 -759
395 -33 10 -69 21 -80 25 -18 7 -88 24 -140 34 -11 3 -63 13 -115 25 -52 11
-115 23 -140 27 -25 3 -54 8 -64 10 -11 2 -42 6 -70 9 -28 3 -69 8 -91 11 -50
8 -78 11 -185 19 -47 4 -101 9 -120 12 -19 3 -690 7 -1490 8 l-1455 3 1 -41z
m2624 -171 c30 -3 80 -8 110 -11 30 -3 66 -8 80 -11 14 -3 40 -8 59 -11 26 -4
128 -31 216 -57 18 -5 49 -19 115 -49 36 -17 68 -31 71 -31 3 -1 37 -21 75
-46 122 -79 240 -213 326 -370 48 -89 127 -301 144 -390 3 -14 10 -43 16 -65
5 -22 11 -49 13 -60 2 -11 5 -33 8 -50 5 -28 8 -47 23 -151 18 -125 28 -331
28 -569 -1 -177 -8 -430 -14 -430 0 0 -3 -33 -5 -74 -3 -41 -8 -86 -11 -100
-3 -14 -7 -44 -10 -66 -3 -22 -7 -51 -10 -65 -3 -14 -7 -40 -10 -57 -2 -18
-11 -61 -19 -95 -9 -35 -18 -73 -20 -85 -21 -94 -143 -381 -167 -391 -4 -2 -8
-10 -8 -18 0 -8 -4 -14 -10 -14 -5 0 -10 -5 -10 -11 0 -14 -72 -101 -130 -158
-41 -39 -151 -118 -209 -148 -82 -44 -320 -117 -421 -129 -19 -2 -44 -6 -55
-8 -48 -11 -238 -19 -470 -20 l-250 -1 0 1870 c-1 1029 2 1872 6 1875 9 6 467
3 539 -4z"/>
</g>
</svg>
